<mxfile host="app.diagrams.net" modified="2023-10-29T15:44:19.954Z" agent="Mozilla/5.0 (Windows NT 10.0; Win64; x64; rv:109.0) Gecko/20100101 Firefox/119.0" version="22.0.8" etag="u1KTT1tLWfh77vAkl92U" type="github">
  <diagram name="Page-1" id="kdXOE15zgvXjreJDdAsB">
    <mxGraphModel>
      <root>
        <mxCell id="0" />
        <mxCell id="1" parent="0" />
      </root>
    </mxGraphModel>
  </diagram>
</mxfile>
